<svg
	xmlns="http://www.w3.org/2000/svg"
	xmlns:xlink="http://www.w3.org/1999/xlink"
	version="1.1"
	viewBox="-10 0 2610 2048"
>
	<path
		fill="currentColor"
		d="M1731 1988q-152 0 -304.5 -69t-286.5 -199l-557 -538q-69 -68 -69 -152q0 -60 36 -111t91 -71l-30 -30q-55 -55 -55 -128q0 -62 37 -111t95 -66l-21 -21q-52 -52 -52 -127q0 -77 54.5 -134t131.5 -57q75 0 129 54l26 26q18 -59 70.5 -93.5t114.5 -34.5q35 0 67.5 11.5
t57.5 37.5l461 461q-5 -31 -8 -59t-3 -54q0 -80 31.5 -147.5t86.5 -108.5t126 -41q67 0 111 44t44 106q0 36 -9 65.5t-9 64.5q0 69 35 174t109 276l29 67q32 75 48.5 143t16.5 136q0 150 -44 275.5t-124.5 217.5t-191 142.5t-244.5 50.5zM540 1655q-100 -17 -175 -88
t-100 -171l97 -24q18 72 71 122t124 63zM638 1481q-73 -13 -127.5 -64.5t-71.5 -123.5l98 -23q10 43 42.5 73.5t75.5 38.5zM1734 1878q108 0 196.5 -41.5t152 -118t98 -182t34.5 -234.5q0 -62 -12 -117.5t-36 -110.5l-29 -67q-79 -184 -117.5 -301t-38.5 -200
q0 -32 8.5 -69.5t8.5 -52.5q0 -17 -13.5 -29t-33.5 -12q-38 0 -65 23.5t-41.5 61.5t-14.5 82q0 19 1.5 40.5t6.5 57.5l27 189q-101 155 -101 302q0 74 26.5 144t78.5 133l-88 74q-133 -157 -133 -351q0 -149 80 -298l-538 -538q-24 -24 -58 -24q-31 0 -55.5 21.5t-24.5 53.5
q0 37 26 63l430 430l-75 74l-572 -572q-26 -26 -58 -26q-31 0 -55 24.5t-24 57.5q0 35 24 59l571 572l-74 74l-445 -444q-10 -11 -23.5 -14t-26.5 -3q-34 0 -58 24t-24 58q0 33 24 59l436 437l-74 74l-298 -297q-19 -19 -49 -19q-31 0 -56 23t-25 54q0 42 45 86l548 530
q121 116 253.5 178t260.5 62zM1540 267q-17 -41 -54.5 -65.5t-81.5 -24.5v-100q74 0 136.5 41t91.5 109zM1684 136q-30 -68 -90.5 -108t-133.5 -40v-100q102 0 188 56.5t128 151.5z"
	>
	</path>
</svg>
